<?xml version="1.0" encoding="utf-8"?>
<!-- Generator: Adobe Illustrator 18.0.0, SVG Export Plug-In . SVG Version: 6.00 Build 0)  -->
<!DOCTYPE svg PUBLIC "-//W3C//DTD SVG 1.1//EN" "http://www.w3.org/Graphics/SVG/1.1/DTD/svg11.dtd">
<svg version="1.1" id="Layer_1" xmlns="http://www.w3.org/2000/svg" xmlns:xlink="http://www.w3.org/1999/xlink" x="0px" y="0px"
	 viewBox="0 0 600 300" enable-background="new 0 0 600 300" xml:space="preserve">
<g>
	<path fill="#24743A" d="M328.3,93.6c0,0,1.2,9.9,8.1,13.5c8.8,4.6,19,3.7,19,3.7L328.3,93.6z"/>
	<path fill="#9C352A" d="M337.6,51.2c0,0,14-10.7,30-10c6.3,0.2,17.7,6.5,22.8,10c13.4,9.2,13.5,13.7,13.6,19.4
		c0.2,13.6-7.4,24.6-7.4,24.6L337.6,51.2z"/>
	<path fill="#24743A" d="M384.3,106.7l12.3-14.5c0,0-1.4,8.8-3.4,11C391.6,104.9,384.3,106.7,384.3,106.7z"/>
	<path fill="#1E416C" d="M355.5,110.8c0,0,7.6,5,17.4,3.3c7.4-1.2,12.8-7.9,12.8-7.9L355.5,110.8z"/>
	<path fill="#1E416C" d="M336.5,49c0,0-6.5,4.5-8.1,6.5c-7.8,9.7-9.5,26.7-9.5,26.7l2.6,6.9l6.9,4.6l10-42.8l-0.4-1.4L336.5,49z"/>
	<g>
		<path fill="#39BA9D" d="M375.2,113.4c-5.1,1.6-12.2,0.4-19.7-2.6c-5.6-0.2-14.5-1.2-19.6-4c-5.4-3-7.5-12.4-7.6-13.2
			c-4.2-3.9-7.5-7.8-9.4-11.5c-1.5,10.1-0.6,20,4,24.2c12.4,11.2,57.5,12.7,68.3,0c0.7-0.9,1.4-1.9,2-3.1c-2.3,1.2-4.8,2.2-7.5,3.1
			C382.1,109.8,378.5,112.4,375.2,113.4z"/>
		<path fill="#F89A50" d="M393.4,44.7c-5-4.1-15.1-4.9-25.8-3.5c15.9,5.3,34.8,18.2,36.2,28.8c0.7,5.7-2.4,14.2-7.2,22.3
			c-0.7,4.2-1.8,8-3.4,11c4.3-2.2,7.7-4.8,9.4-7.8C409.2,84.1,403.6,53.1,393.4,44.7z"/>
		<path fill="#9A5AA2" d="M330.4,54.9c1.9-1.6,4.6-3,7.8-4.1c7-4.6,18.5-8.2,29.4-9.6c-5.8-1.9-11.2-2.8-15.2-2.2
			c-13.4,2-38.4,27.1-35,39.7c0.3,1.1,0.8,2.3,1.4,3.5C320.5,70.9,325,59.3,330.4,54.9z"/>
		<path fill="#1B271A" d="M391.2,54.9c-8-9.4-36.9-9.8-52.9-4.1c-1.9,1.3-3.5,2.6-4.7,4c-5.9,7-8.2,25.7-5.2,38.9
			c7.5,6.9,17.7,13.4,27.2,17.2c9.9,0.1,21.1-1.5,30.2-4.6c4-3.9,7.8-8.9,10.9-14.1C398.8,78.9,397,61.7,391.2,54.9z"/>
	</g>
	<g>
		<path fill="#7E8C8D" d="M185.4,64.9h-12.5c-1.1,0-2,0.3-2.6,1c-0.7,0.7-1,1.5-1,2.5v9h14.4v0.9h-14.4v15.2h-1.1V68.3
			c0-1.3,0.4-2.3,1.3-3.1c0.9-0.8,2-1.2,3.3-1.2c5.7,0,10,0.1,12.8,0.2L185.4,64.9z"/>
		<path fill="#7E8C8D" d="M209.3,92.6l0.1,0.8c-2.9,0.1-7.3,0.2-13.2,0.2c-1.3,0-2.4-0.4-3.3-1.2c-0.9-0.8-1.3-1.9-1.3-3.1V68.3
			c0-1.3,0.4-2.3,1.3-3.1c0.9-0.8,2-1.2,3.3-1.2c5.8,0,10.2,0.1,13.2,0.2l-0.1,0.8h-12.8c-1.1,0-2,0.3-2.6,1s-1,1.5-1,2.5v8.8h14.7
			v0.9h-14.7v10.9c0,1,0.3,1.9,1,2.5c0.7,0.7,1.6,1,2.6,1H209.3L209.3,92.6z"/>
		<path fill="#7E8C8D" d="M242.4,63.9h1.9c0.4,0,0.7,0.2,0.7,0.6l1.3,28.9h-1.1l-1.3-28.6h-1.1l-10.1,25.7c-0.1,0.3-0.3,0.4-0.6,0.4
			h-1.9c-0.3,0-0.5-0.1-0.6-0.4l-10.1-25.7h-1.1l-1.3,28.6H216l1.3-28.9c0-0.4,0.2-0.6,0.7-0.6h1.9c0.3,0,0.5,0.1,0.6,0.4L229,86
			c0.2,0.5,0.4,1.1,0.8,2c0.3,0.9,0.6,1.6,0.8,2h1.2l1.6-4.1l8.5-21.6C241.9,64.1,242.1,63.9,242.4,63.9z"/>
		<path fill="#7E8C8D" d="M275.7,63.9v18.6c0,4.1-0.8,7.1-2.4,8.8c-1.6,1.7-4.3,2.6-8.1,2.6c-3.8,0-6.6-0.9-8.2-2.6
			c-1.6-1.7-2.4-4.7-2.4-8.8V63.9h1.1v18.6c0,3.8,0.7,6.5,2.1,8.1c1.4,1.6,3.9,2.4,7.3,2.4c3.4,0,5.9-0.8,7.3-2.4
			c1.4-1.6,2.1-4.3,2.1-8.1V63.9H275.7z"/>
		<path fill="#7E8C8D" d="M304.3,76.4v17.1h-0.8l-0.3-3.8c-2.8,2.9-6,4.3-9.6,4.3c-3.6,0-6.2-1.2-7.8-3.6c-1.6-2.4-2.4-6.3-2.4-11.7
			c0-5.7,0.9-9.6,2.6-11.9c1.7-2.3,4.7-3.4,9-3.4c3.3,0,6.3,0.2,8.8,0.7l-0.3,0.8c-2.5-0.3-5.3-0.5-8.5-0.5c-3.9,0-6.6,1.1-8.1,3.2
			c-1.5,2.1-2.3,5.8-2.3,11.1c0,5.1,0.7,8.7,2.1,11c1.4,2.2,3.7,3.4,7,3.4c1,0,2-0.1,2.9-0.3c0.9-0.2,1.8-0.6,2.6-1.1
			c0.8-0.5,1.5-0.9,1.9-1.3c0.4-0.3,1.1-0.9,1.9-1.6V76.4L304.3,76.4L304.3,76.4z"/>
	</g>
	<text transform="matrix(1.0437 0 0 1 331.1937 92.1957)" fill="#FFFFFF" font-family="'Exo2-ExtraLight'" font-size="42.7187">AM</text>
</g>
<text transform="matrix(1.0107 0 0 1 67.1088 170.949)"><tspan x="0" y="0" fill="#7E8C8D" font-family="'Exo2-ExtraLight'" font-size="37.1019">Front-End Meet-Up Group</tspan><tspan x="103.1" y="44.5" fill="#7E8C8D" font-family="'Exo2-ExtraLight'" font-size="37.1019">Do Amazonas</tspan></text>
<g>
	<polygon fill="none" stroke="#000000" stroke-width="5" stroke-miterlimit="10" points="459.8,206.8 459.8,282.9 113.1,282.9 
		113.1,206.8 111.1,206.8 111.1,285 462.6,285 462.6,206.8 	"/>
	<polygon fill="none" stroke="#000000" stroke-width="5" stroke-miterlimit="10" points="459.7,101.7 459.7,20.4 113.1,20.4 
		113.1,101.7 111,101.7 111,18.2 462.5,18.2 462.5,101.7 	"/>
</g>
</svg>
